<mxfile host="app.diagrams.net" agent="Mozilla/5.0 (Windows NT 10.0; Win64; x64; rv:139.0) Gecko/20100101 Firefox/139.0" version="27.1.6">
  <diagram name="Page-1" id="G9EifJa7VEOipXLOkobE">
    <mxGraphModel dx="2455" dy="903" grid="1" gridSize="10" guides="1" tooltips="1" connect="1" arrows="1" fold="1" page="1" pageScale="1" pageWidth="850" pageHeight="1100" math="0" shadow="0">
      <root>
        <mxCell id="0" />
        <mxCell id="1" parent="0" />
        <mxCell id="xjk9JR9wXW13tgPxYJct-75" value="" style="rounded=0;whiteSpace=wrap;html=1;" vertex="1" parent="1">
          <mxGeometry x="505" y="250" width="770" height="650" as="geometry" />
        </mxCell>
        <mxCell id="xjk9JR9wXW13tgPxYJct-76" value="" style="shape=module;jettyWidth=8;jettyHeight=4;" vertex="1" parent="1">
          <mxGeometry x="1240" y="260" width="20" height="20" as="geometry" />
        </mxCell>
        <mxCell id="xjk9JR9wXW13tgPxYJct-77" value="&lt;div&gt;&amp;lt;&amp;lt;component&amp;gt;&amp;gt;&lt;/div&gt;&lt;div&gt;Orchestrator&lt;/div&gt;" style="text;html=1;align=center;verticalAlign=middle;whiteSpace=wrap;rounded=0;" vertex="1" parent="1">
          <mxGeometry x="850" y="260" width="60" height="30" as="geometry" />
        </mxCell>
        <mxCell id="xjk9JR9wXW13tgPxYJct-78" value="&lt;div&gt;«component»&lt;b&gt;&lt;br&gt;&lt;/b&gt;&lt;/div&gt;&lt;div&gt;&lt;b&gt;Matcher&lt;/b&gt;&lt;/div&gt;" style="html=1;dropTarget=0;whiteSpace=wrap;" vertex="1" parent="1">
          <mxGeometry x="940" y="470" width="200" height="90" as="geometry" />
        </mxCell>
        <mxCell id="xjk9JR9wXW13tgPxYJct-79" value="" style="shape=module;jettyWidth=8;jettyHeight=4;" vertex="1" parent="xjk9JR9wXW13tgPxYJct-78">
          <mxGeometry x="1" width="20" height="20" relative="1" as="geometry">
            <mxPoint x="-27" y="7" as="offset" />
          </mxGeometry>
        </mxCell>
        <mxCell id="xjk9JR9wXW13tgPxYJct-80" value="«component»&lt;br&gt;&lt;b&gt;Llm&lt;/b&gt;" style="html=1;dropTarget=0;whiteSpace=wrap;" vertex="1" parent="1">
          <mxGeometry x="540" y="311" width="180" height="90" as="geometry" />
        </mxCell>
        <mxCell id="xjk9JR9wXW13tgPxYJct-81" value="" style="shape=module;jettyWidth=8;jettyHeight=4;" vertex="1" parent="xjk9JR9wXW13tgPxYJct-80">
          <mxGeometry x="1" width="20" height="20" relative="1" as="geometry">
            <mxPoint x="-27" y="7" as="offset" />
          </mxGeometry>
        </mxCell>
        <mxCell id="xjk9JR9wXW13tgPxYJct-82" value="«component»&lt;br&gt;&lt;b&gt;Ontology&lt;/b&gt;" style="html=1;dropTarget=0;whiteSpace=wrap;" vertex="1" parent="1">
          <mxGeometry x="541" y="679" width="180" height="90" as="geometry" />
        </mxCell>
        <mxCell id="xjk9JR9wXW13tgPxYJct-83" value="" style="shape=module;jettyWidth=8;jettyHeight=4;" vertex="1" parent="xjk9JR9wXW13tgPxYJct-82">
          <mxGeometry x="1" width="20" height="20" relative="1" as="geometry">
            <mxPoint x="-27" y="7" as="offset" />
          </mxGeometry>
        </mxCell>
        <mxCell id="xjk9JR9wXW13tgPxYJct-86" value="&lt;div&gt;«component»&lt;b&gt;&lt;br&gt;&lt;/b&gt;&lt;/div&gt;&lt;div&gt;&lt;b&gt;Levenshtein&lt;/b&gt;&lt;/div&gt;" style="html=1;dropTarget=0;whiteSpace=wrap;" vertex="1" parent="1">
          <mxGeometry x="942" y="690" width="197" height="90" as="geometry" />
        </mxCell>
        <mxCell id="xjk9JR9wXW13tgPxYJct-87" value="" style="shape=module;jettyWidth=8;jettyHeight=4;" vertex="1" parent="xjk9JR9wXW13tgPxYJct-86">
          <mxGeometry x="1" width="20" height="20" relative="1" as="geometry">
            <mxPoint x="-27" y="7" as="offset" />
          </mxGeometry>
        </mxCell>
        <mxCell id="xjk9JR9wXW13tgPxYJct-90" value="" style="ellipse;whiteSpace=wrap;html=1;align=center;aspect=fixed;fillColor=none;strokeColor=none;resizable=0;perimeter=centerPerimeter;rotatable=0;allowArrows=0;points=[];outlineConnect=1;" vertex="1" parent="1">
          <mxGeometry x="710" y="410" width="10" height="10" as="geometry" />
        </mxCell>
        <mxCell id="xjk9JR9wXW13tgPxYJct-93" value="" style="ellipse;whiteSpace=wrap;html=1;align=center;aspect=fixed;fillColor=none;strokeColor=none;resizable=0;perimeter=centerPerimeter;rotatable=0;allowArrows=0;points=[];outlineConnect=1;" vertex="1" parent="1">
          <mxGeometry x="1040" y="590" width="10" height="10" as="geometry" />
        </mxCell>
        <mxCell id="xjk9JR9wXW13tgPxYJct-96" value="" style="ellipse;whiteSpace=wrap;html=1;align=center;aspect=fixed;fillColor=none;strokeColor=none;resizable=0;perimeter=centerPerimeter;rotatable=0;allowArrows=0;points=[];outlineConnect=1;" vertex="1" parent="1">
          <mxGeometry x="791" y="620" width="10" height="10" as="geometry" />
        </mxCell>
        <mxCell id="xjk9JR9wXW13tgPxYJct-101" value="" style="ellipse;whiteSpace=wrap;html=1;align=center;aspect=fixed;fillColor=none;strokeColor=none;resizable=0;perimeter=centerPerimeter;rotatable=0;allowArrows=0;points=[];outlineConnect=1;" vertex="1" parent="1">
          <mxGeometry x="520" y="620" width="10" height="10" as="geometry" />
        </mxCell>
        <mxCell id="xjk9JR9wXW13tgPxYJct-102" value="" style="shape=providedRequiredInterface;html=1;verticalLabelPosition=bottom;sketch=0;rotation=90;" vertex="1" parent="1">
          <mxGeometry x="1029" y="392" width="20" height="20" as="geometry" />
        </mxCell>
        <mxCell id="xjk9JR9wXW13tgPxYJct-103" value="" style="endArrow=none;html=1;rounded=0;exitX=0.5;exitY=0;exitDx=0;exitDy=0;entryX=1;entryY=0.5;entryDx=0;entryDy=0;entryPerimeter=0;" edge="1" parent="1" target="xjk9JR9wXW13tgPxYJct-102">
          <mxGeometry width="50" height="50" relative="1" as="geometry">
            <mxPoint x="1039" y="470" as="sourcePoint" />
            <mxPoint x="1049" y="372.9999999999999" as="targetPoint" />
          </mxGeometry>
        </mxCell>
        <mxCell id="xjk9JR9wXW13tgPxYJct-104" value="" style="endArrow=none;html=1;rounded=0;exitX=1;exitY=0.5;exitDx=0;exitDy=0;entryX=0.63;entryY=0.163;entryDx=0;entryDy=0;entryPerimeter=0;" edge="1" parent="1" source="xjk9JR9wXW13tgPxYJct-80" target="xjk9JR9wXW13tgPxYJct-75">
          <mxGeometry width="50" height="50" relative="1" as="geometry">
            <mxPoint x="990" y="390" as="sourcePoint" />
            <mxPoint x="1040" y="340" as="targetPoint" />
          </mxGeometry>
        </mxCell>
        <mxCell id="xjk9JR9wXW13tgPxYJct-106" value="" style="rounded=0;orthogonalLoop=1;jettySize=auto;html=1;endArrow=halfCircle;endFill=0;endSize=6;strokeWidth=1;sketch=0;fontSize=12;curved=1;exitX=0;exitY=0.5;exitDx=0;exitDy=0;" edge="1" parent="1">
          <mxGeometry relative="1" as="geometry">
            <mxPoint x="525" y="356" as="sourcePoint" />
            <mxPoint x="450" y="356" as="targetPoint" />
          </mxGeometry>
        </mxCell>
        <mxCell id="xjk9JR9wXW13tgPxYJct-107" value="" style="ellipse;whiteSpace=wrap;html=1;align=center;aspect=fixed;fillColor=none;strokeColor=none;resizable=0;perimeter=centerPerimeter;rotatable=0;allowArrows=0;points=[];outlineConnect=1;flipV=0;" vertex="1" parent="1">
          <mxGeometry x="440" y="320" width="10" height="10" as="geometry" />
        </mxCell>
        <mxCell id="xjk9JR9wXW13tgPxYJct-108" value="Abstract" style="text;html=1;align=center;verticalAlign=middle;whiteSpace=wrap;rounded=0;" vertex="1" parent="1">
          <mxGeometry x="420" y="360" width="60" height="30" as="geometry" />
        </mxCell>
        <mxCell id="xjk9JR9wXW13tgPxYJct-109" value="" style="shape=providedRequiredInterface;html=1;verticalLabelPosition=bottom;sketch=0;rotation=90;" vertex="1" parent="1">
          <mxGeometry x="1029.5" y="603" width="21" height="20" as="geometry" />
        </mxCell>
        <mxCell id="xjk9JR9wXW13tgPxYJct-110" value="" style="endArrow=none;html=1;rounded=0;exitX=0;exitY=0.5;exitDx=0;exitDy=0;exitPerimeter=0;" edge="1" parent="1" source="xjk9JR9wXW13tgPxYJct-109">
          <mxGeometry width="50" height="50" relative="1" as="geometry">
            <mxPoint x="990" y="610" as="sourcePoint" />
            <mxPoint x="1040" y="560" as="targetPoint" />
          </mxGeometry>
        </mxCell>
        <mxCell id="xjk9JR9wXW13tgPxYJct-111" value="" style="endArrow=none;html=1;rounded=0;exitX=0.5;exitY=0;exitDx=0;exitDy=0;" edge="1" parent="1" source="xjk9JR9wXW13tgPxYJct-126">
          <mxGeometry width="50" height="50" relative="1" as="geometry">
            <mxPoint x="990" y="680" as="sourcePoint" />
            <mxPoint x="1040" y="630" as="targetPoint" />
          </mxGeometry>
        </mxCell>
        <mxCell id="xjk9JR9wXW13tgPxYJct-113" value="" style="endArrow=none;html=1;rounded=0;exitX=1;exitY=0.5;exitDx=0;exitDy=0;" edge="1" parent="1" source="xjk9JR9wXW13tgPxYJct-82">
          <mxGeometry width="50" height="50" relative="1" as="geometry">
            <mxPoint x="710" y="610" as="sourcePoint" />
            <mxPoint x="820" y="724" as="targetPoint" />
          </mxGeometry>
        </mxCell>
        <mxCell id="xjk9JR9wXW13tgPxYJct-117" value="" style="endArrow=none;html=1;rounded=0;edgeStyle=orthogonalEdgeStyle;entryX=0.5;entryY=1;entryDx=0;entryDy=0;" edge="1" parent="1" target="xjk9JR9wXW13tgPxYJct-130">
          <mxGeometry width="50" height="50" relative="1" as="geometry">
            <mxPoint x="820" y="724" as="sourcePoint" />
            <mxPoint x="889.8254759356273" y="609.998476951564" as="targetPoint" />
          </mxGeometry>
        </mxCell>
        <mxCell id="xjk9JR9wXW13tgPxYJct-119" value="" style="endArrow=none;html=1;rounded=0;startArrow=none;startFill=0;edgeStyle=orthogonalEdgeStyle;entryX=1;entryY=0.5;entryDx=0;entryDy=0;entryPerimeter=0;" edge="1" parent="1" target="xjk9JR9wXW13tgPxYJct-121">
          <mxGeometry width="50" height="50" relative="1" as="geometry">
            <mxPoint x="940" y="517" as="sourcePoint" />
            <mxPoint x="890.1745240643731" y="597.0015230484362" as="targetPoint" />
          </mxGeometry>
        </mxCell>
        <mxCell id="xjk9JR9wXW13tgPxYJct-121" value="" style="shape=providedRequiredInterface;html=1;verticalLabelPosition=bottom;sketch=0;rotation=-90;" vertex="1" parent="1">
          <mxGeometry x="880" y="590" width="20" height="20" as="geometry" />
        </mxCell>
        <mxCell id="xjk9JR9wXW13tgPxYJct-122" value="" style="endArrow=none;html=1;rounded=0;edgeStyle=orthogonalEdgeStyle;entryX=0;entryY=0.5;entryDx=0;entryDy=0;entryPerimeter=0;" edge="1" parent="1" source="xjk9JR9wXW13tgPxYJct-128" target="xjk9JR9wXW13tgPxYJct-102">
          <mxGeometry width="50" height="50" relative="1" as="geometry">
            <mxPoint x="989" y="356" as="sourcePoint" />
            <mxPoint x="1039" y="406" as="targetPoint" />
          </mxGeometry>
        </mxCell>
        <mxCell id="xjk9JR9wXW13tgPxYJct-123" value="" style="ellipse;whiteSpace=wrap;html=1;aspect=fixed;perimeterSpacing=1;" vertex="1" parent="1">
          <mxGeometry x="1316" y="505" width="20" height="20" as="geometry" />
        </mxCell>
        <mxCell id="xjk9JR9wXW13tgPxYJct-124" value="" style="endArrow=none;html=1;rounded=0;exitX=1;exitY=0.5;exitDx=0;exitDy=0;entryX=0;entryY=0.5;entryDx=0;entryDy=0;" edge="1" parent="1" source="xjk9JR9wXW13tgPxYJct-137" target="xjk9JR9wXW13tgPxYJct-123">
          <mxGeometry width="50" height="50" relative="1" as="geometry">
            <mxPoint x="1280" y="560" as="sourcePoint" />
            <mxPoint x="1330" y="510" as="targetPoint" />
          </mxGeometry>
        </mxCell>
        <mxCell id="xjk9JR9wXW13tgPxYJct-125" value="Techniques" style="text;html=1;align=center;verticalAlign=middle;whiteSpace=wrap;rounded=0;" vertex="1" parent="1">
          <mxGeometry x="1285" y="525" width="60" height="30" as="geometry" />
        </mxCell>
        <mxCell id="xjk9JR9wXW13tgPxYJct-127" value="" style="endArrow=none;html=1;rounded=0;exitX=0.5;exitY=0;exitDx=0;exitDy=0;" edge="1" parent="1" source="xjk9JR9wXW13tgPxYJct-86" target="xjk9JR9wXW13tgPxYJct-126">
          <mxGeometry width="50" height="50" relative="1" as="geometry">
            <mxPoint x="1040" y="690" as="sourcePoint" />
            <mxPoint x="1040" y="630" as="targetPoint" />
          </mxGeometry>
        </mxCell>
        <mxCell id="xjk9JR9wXW13tgPxYJct-126" value="Levenshtein distance" style="text;html=1;align=center;verticalAlign=middle;whiteSpace=wrap;rounded=0;" vertex="1" parent="1">
          <mxGeometry x="1010" y="636" width="60" height="30" as="geometry" />
        </mxCell>
        <mxCell id="xjk9JR9wXW13tgPxYJct-129" value="" style="endArrow=none;html=1;rounded=0;edgeStyle=orthogonalEdgeStyle;entryX=0;entryY=0.5;entryDx=0;entryDy=0;entryPerimeter=0;" edge="1" parent="1" target="xjk9JR9wXW13tgPxYJct-128">
          <mxGeometry width="50" height="50" relative="1" as="geometry">
            <mxPoint x="989" y="356" as="sourcePoint" />
            <mxPoint x="1039" y="399" as="targetPoint" />
            <Array as="points">
              <mxPoint x="1010" y="356" />
              <mxPoint x="1010" y="356" />
            </Array>
          </mxGeometry>
        </mxCell>
        <mxCell id="xjk9JR9wXW13tgPxYJct-128" value="Techniques" style="text;html=1;align=center;verticalAlign=middle;whiteSpace=wrap;rounded=0;" vertex="1" parent="1">
          <mxGeometry x="1009" y="341" width="60" height="30" as="geometry" />
        </mxCell>
        <mxCell id="xjk9JR9wXW13tgPxYJct-130" value="Ontology" style="text;html=1;align=center;verticalAlign=middle;whiteSpace=wrap;rounded=0;" vertex="1" parent="1">
          <mxGeometry x="860" y="620" width="60" height="27" as="geometry" />
        </mxCell>
        <mxCell id="xjk9JR9wXW13tgPxYJct-131" value="" style="endArrow=none;html=1;rounded=0;entryX=0;entryY=0.5;entryDx=0;entryDy=0;entryPerimeter=0;exitX=0.5;exitY=0;exitDx=0;exitDy=0;" edge="1" parent="1" source="xjk9JR9wXW13tgPxYJct-130" target="xjk9JR9wXW13tgPxYJct-121">
          <mxGeometry width="50" height="50" relative="1" as="geometry">
            <mxPoint x="810" y="658.5" as="sourcePoint" />
            <mxPoint x="860" y="608.5" as="targetPoint" />
          </mxGeometry>
        </mxCell>
        <mxCell id="xjk9JR9wXW13tgPxYJct-132" value="" style="whiteSpace=wrap;html=1;aspect=fixed;" vertex="1" parent="1">
          <mxGeometry x="495" y="346" width="20" height="20" as="geometry" />
        </mxCell>
        <mxCell id="xjk9JR9wXW13tgPxYJct-135" value="" style="endArrow=none;html=1;rounded=0;entryX=0;entryY=0.5;entryDx=0;entryDy=0;exitX=1;exitY=0.5;exitDx=0;exitDy=0;" edge="1" parent="1" source="xjk9JR9wXW13tgPxYJct-132" target="xjk9JR9wXW13tgPxYJct-80">
          <mxGeometry width="50" height="50" relative="1" as="geometry">
            <mxPoint x="484" y="410" as="sourcePoint" />
            <mxPoint x="534" y="360" as="targetPoint" />
          </mxGeometry>
        </mxCell>
        <mxCell id="xjk9JR9wXW13tgPxYJct-139" value="" style="endArrow=none;html=1;rounded=0;exitX=1;exitY=0.5;exitDx=0;exitDy=0;entryX=0;entryY=0.5;entryDx=0;entryDy=0;" edge="1" parent="1" source="xjk9JR9wXW13tgPxYJct-78" target="xjk9JR9wXW13tgPxYJct-137">
          <mxGeometry width="50" height="50" relative="1" as="geometry">
            <mxPoint x="1140" y="515" as="sourcePoint" />
            <mxPoint x="1304" y="515" as="targetPoint" />
          </mxGeometry>
        </mxCell>
        <mxCell id="xjk9JR9wXW13tgPxYJct-137" value="" style="whiteSpace=wrap;html=1;aspect=fixed;" vertex="1" parent="1">
          <mxGeometry x="1265" y="505" width="20" height="20" as="geometry" />
        </mxCell>
        <mxCell id="xjk9JR9wXW13tgPxYJct-141" value="" style="whiteSpace=wrap;html=1;aspect=fixed;" vertex="1" parent="1">
          <mxGeometry x="495" y="714" width="20" height="20" as="geometry" />
        </mxCell>
        <mxCell id="xjk9JR9wXW13tgPxYJct-143" value="" style="endArrow=none;html=1;rounded=0;entryX=0;entryY=0.5;entryDx=0;entryDy=0;exitX=1;exitY=0.5;exitDx=0;exitDy=0;" edge="1" parent="1" source="xjk9JR9wXW13tgPxYJct-141" target="xjk9JR9wXW13tgPxYJct-82">
          <mxGeometry width="50" height="50" relative="1" as="geometry">
            <mxPoint x="480" y="769" as="sourcePoint" />
            <mxPoint x="530" y="719" as="targetPoint" />
          </mxGeometry>
        </mxCell>
        <mxCell id="xjk9JR9wXW13tgPxYJct-144" value="" style="endArrow=none;html=1;rounded=0;entryX=0;entryY=0.5;entryDx=0;entryDy=0;exitX=1;exitY=0.5;exitDx=0;exitDy=0;exitPerimeter=0;" edge="1" parent="1" source="xjk9JR9wXW13tgPxYJct-145" target="xjk9JR9wXW13tgPxYJct-141">
          <mxGeometry width="50" height="50" relative="1" as="geometry">
            <mxPoint x="440" y="769" as="sourcePoint" />
            <mxPoint x="490" y="719" as="targetPoint" />
          </mxGeometry>
        </mxCell>
        <mxCell id="xjk9JR9wXW13tgPxYJct-145" value="" style="shape=requiredInterface;html=1;verticalLabelPosition=bottom;sketch=0;" vertex="1" parent="1">
          <mxGeometry x="460" y="714" width="10" height="20" as="geometry" />
        </mxCell>
        <mxCell id="xjk9JR9wXW13tgPxYJct-146" value="Ontology" style="text;html=1;align=center;verticalAlign=middle;whiteSpace=wrap;rounded=0;" vertex="1" parent="1">
          <mxGeometry x="435" y="734" width="60" height="30" as="geometry" />
        </mxCell>
      </root>
    </mxGraphModel>
  </diagram>
</mxfile>
